<?xml version="1.0" encoding="utf-8"?>
<!-- Generator: Adobe Illustrator 17.1.0, SVG Export Plug-In . SVG Version: 6.00 Build 0)  -->
<!DOCTYPE svg PUBLIC "-//W3C//DTD SVG 1.1//EN" "http://www.w3.org/Graphics/SVG/1.1/DTD/svg11.dtd">
<svg version="1.1" id="iww" xmlns="http://www.w3.org/2000/svg" xmlns:xlink="http://www.w3.org/1999/xlink" x="0px" y="0px"
	 viewBox="0 0 800 800" enable-background="new 0 0 800 800" xml:space="preserve">
<circle id="Back_color_1_" fill="#231F20" cx="400" cy="400" r="341.2"/>
<g>
	<g id="IWW">
		<path fill="#FFFFFF" d="M324.9,262.3h-48.8c0,0-8.7,27.5-17.6,83.2L238,332.5l-8.7,31.2l-36.8-31.9l-24.4,20l67.5,75.7l15-11.3
			l1.9-30l21.3,21.8l19.4-8.2C293,400,299.2,276,324.9,262.3z"/>
		<path fill="#FFFFFF" d="M475.7,262.3h48.8c0,0,8.7,27.5,17.6,83.2l20.6-13.1l8.7,31.2l36.8-31.9l24.4,20l-67.5,75.7l-15-11.3
			l-1.9-30l-21.2,22l-19.4-8.2C507.6,400,501.3,276,475.7,262.3z"/>
		<polyline fill="#FFFFFF" points="421.8,115.8 379.4,115.8 383.1,231 421.8,231 		"/>
	</g>
	<g id="stars">
		<polygon fill="#FFFFFF" points="265.9,145.5 275,172.3 300.2,172.1 281.3,190.2 288.4,219.9 266.6,202.5 246.3,219.9 252.1,190.2 
			234.9,172.1 259.1,172.1 		"/>
		<polygon fill="#FFFFFF" points="401.7,301.4 410.7,328.2 436,328 417.1,346.1 424.2,375.8 402.6,358.4 382.1,375.8 387.9,346.1 
			370.7,328 395.1,328 		"/>
		<polygon fill="#FFFFFF" points="532.5,148.4 541.6,175 566.8,174.8 547.9,192.9 555.1,222.6 533.4,205.2 512.9,222.6 518.7,192.9 
			501.5,174.8 525.9,174.8 		"/>
	</g>
	<path fill="#FFFFFF" d="M400,79.5C223.3,79.5,79.5,223.3,79.5,400S223.3,720.5,400,720.5S720.5,576.7,720.5,400
		S576.7,79.5,400,79.5z M400,94.5c168.4,0,305.5,137,305.5,305.5c0,65.2-20.6,125.5-55.4,175.2C616.5,471.6,516,400.7,400.2,400.7
		s-216.3,71.1-249.9,174.7c-35-49.6-55.4-110-55.4-175.2C94.5,231.6,231.6,94.5,400,94.5z M343.2,450c-5.3,6-14.2,17.1-24.7,34.6
		c-6.1-1.9-12.3-4.1-18.3-6.3c14.7-17.1,26.6-28.1,32.2-32.9C336,446.9,339.6,448.4,343.2,450z M442.5,454.9
		c0.9,1,10.2,11.8,23.7,34.8c-6.3,1.5-12.8,2.7-19.3,3.8c-3.1-9-5.8-16.5-8-22c-2.6-6.5-4.3-10.9-5.6-14.2
		C436.3,456.6,439.4,455.8,442.5,454.9z M457.7,449.8c2.9-1.2,8-2.9,8-2.9c0.3,0.2,14.3,10.9,33.8,32.9c-6,2.2-11.9,4.1-18.1,6
		C471,467.5,462.4,455.8,457.7,449.8z M417.7,460c0.2,0.3,6,12.8,13.8,35.5c-7.8,0.9-15.9,1.2-23.9,1.4v-36.2
		C411.3,460.6,417.7,460,417.7,460z M392.7,566.3c-14.3-0.3-29-1.7-43.7-4.1c4.9-20.3,9.9-37.9,14.7-52.7c9.6,1.2,19.3,2,29,2.4
		V566.3z M407.7,511.9c9.7-0.2,19.3-0.9,28.8-1.9c4.8,14.7,9.9,32.4,15,53c-14.3,2-29,3.1-43.8,3.4L407.7,511.9z M392.7,496.7
		c-8.2-0.3-16.2-0.9-24.2-1.9c6.1-17.9,11.1-29.9,13.5-35.1c3.6,0.5,7.2,0.7,10.7,0.9V496.7z M353.3,492.8c-6.5-1.2-13-2.4-19.4-4.1
		c14.5-23.4,24.7-33.3,25.1-33.4c0,0,5.1,1.2,7.7,1.9C363.7,464.1,358.9,476.1,353.3,492.8z M311,497.7
		c-7.3,13.3-15.2,29.5-23.2,48.8c-9.9-3.4-19.6-7.2-29.2-11.4c10.9-17.6,21.7-32.4,31.6-45C297,493.1,303.8,495.5,311,497.7z
		 M325.8,502.2c7.5,1.9,15,3.6,22.5,4.9c-4.6,14.8-9.6,32.2-14.3,52.2c-10.7-2.2-21.3-4.9-31.9-8.2
		C310.4,531.5,318.5,515.3,325.8,502.2z M330.7,574c-3.8,16.9-7.3,35.3-10.4,55.1c-14.2-2.7-28.1-6.3-41.8-10.4
		c6-20,11.9-37.7,18.1-53.4C307.9,568.7,319.3,571.6,330.7,574z M345.6,576.9c15.7,2.6,31.6,4.1,47.1,4.4v55.1
		c-19.3-0.3-38.6-1.9-57.3-4.8C338.3,612,341.8,593.6,345.6,576.9z M407.7,581.3c16-0.3,31.9-1.5,47.4-3.8
		c3.8,16.4,7.3,34.1,10.4,53.4c-19.1,3.1-38.4,4.9-57.8,5.5V581.3z M469.8,575.4c11.3-2,22.3-4.8,33.3-7.8
		c5.8,15,11.8,31.9,17.6,50.5c-13.3,4.1-26.8,7.7-40.4,10.4C476.9,609.1,473.5,591.4,469.8,575.4z M466.4,560.7
		c-3.6-14.5-7.2-27.5-10.4-38.6c-1.5-5.1-2.9-9.7-4.4-14.3c7.5-1.2,14.8-2.7,22.2-4.6c7.3,13.5,15.4,30.2,23.7,50.1
		C487.3,556.2,476.9,558.6,466.4,560.7z M488.9,499.3c7.2-2.2,14-4.6,21-7.2c10.2,12.5,21.3,27.6,32.4,45.4
		c-9.9,4.3-20,8.2-30.2,11.6C503.9,529.5,496,512.9,488.9,499.3z M524.3,485.8c11.3-5.1,21.8-11.1,32.1-17.6
		c14.7,11.4,28.1,24.4,39.7,38.7c-12.8,9-26.1,16.9-40.1,23.9C545.3,513.3,534.4,498.4,524.3,485.8z M514.5,473.9
		c-15.5-17.9-28.3-29.5-35-35c3.6-2.2,7.2-4.6,10.7-7.2c18.9,7,36.8,16,53.2,27.1C534.2,464.3,524.5,469.4,514.5,473.9z
		 M400.2,445.9c-25.8,0-50.8-7.2-72-20.3c22.9-6.5,46.9-9.9,71.8-9.9s49.1,3.4,72,10.1C450.8,438.7,425.9,445.9,400.2,445.9z
		 M310.1,431.6c2.7,2,5.6,3.9,8.4,5.8c-7.3,6.7-19.3,18.1-33.1,34.6c-9.4-4.3-18.3-9.2-26.8-14.5
		C274.6,446.9,291.9,438.2,310.1,431.6z M245.5,466.7c9.6,6.3,19.6,12.1,30.2,17.1c-9.9,12.6-20.5,27.6-31,44.9
		c-14-6.8-27.3-14.5-39.7-23C216.8,491.3,230.4,478.1,245.5,466.7z M195.8,517.7c13,8.9,26.8,16.9,41.3,24.1
		c-8.5,15-17.1,31.6-24.9,49.8c-14.8-7.7-29-16.4-42.5-26.1C176.4,548.4,185.2,532.5,195.8,517.7z M250.7,548.2
		c10.2,4.6,20.8,8.7,31.4,12.3c-6.1,15.9-12.1,33.6-18.1,53.4c-13.1-4.6-26.1-9.9-38.6-15.9C233.5,580,242,563.2,250.7,548.2z
		 M260,628.4c-3.2,11.9-6.5,24.4-9.6,37.7c-14.3-8-27.8-17.2-40.6-27.3c3.1-9.2,6.5-18.1,9.9-26.6
		C232.8,618.3,246.3,623.8,260,628.4z M274.3,633.2c14.3,4.4,29,8,43.7,10.9c-2.2,15.4-4.1,31.6-5.6,48.6
		c-16.7-4.9-32.9-11.4-48.3-19.1C267.5,659.3,270.9,645.8,274.3,633.2z M333,646.7c19.6,3.1,39.6,4.6,59.5,4.9v53.7
		c-22.3-0.5-44.2-3.4-65.2-8.7C328.7,679.1,330.7,662.5,333,646.7z M407.5,651.4c20.3-0.5,40.4-2.4,60.2-5.6
		c2.4,16,4.4,32.9,6.1,50.5c-21.3,5.3-43.5,8.4-66.4,8.9V651.4z M482.6,643.1c14.3-2.9,28.7-6.5,42.5-10.9
		c3.8,13,7.5,26.6,11.1,41.1c-15.2,7.5-31,14-47.6,18.9C486.8,675.1,484.8,658.8,482.6,643.1z M539.4,627.4
		c13.8-4.9,27.3-10.6,40.3-16.7c3.8,9,7.2,18.4,10.6,28.1c-12.6,10.1-26.1,19.3-40.3,27.3C546.4,652.5,542.9,639.7,539.4,627.4z
		 M534.9,613c-5.8-18.4-11.6-35.1-17.4-50.1c11.1-3.8,21.8-7.8,32.4-12.6c8.2,14,16.2,29.5,23.7,46.4
		C561.2,603,548.2,608.4,534.9,613z M563.8,543.8c14.3-7.3,28.3-15.5,41.4-24.9c9.7,13.8,17.9,28.7,24.6,44.5
		c-13.5,9.7-27.8,18.6-42.6,26.6C579.6,573.1,571.8,557.8,563.8,543.8z M161.4,590.2c0.9-3.4,1.9-6.8,3.1-10.1
		c13.3,9.2,27.5,17.7,42,25.2c-3.1,7.5-6,15-8.7,23C184.4,616.8,172.3,604,161.4,590.2z M602.5,628.4c-3.1-8.5-6.1-16.7-9.4-24.6
		c14.7-7.7,28.7-16.4,42.1-25.9c1.4,3.9,2.6,8,3.8,12.1C627.7,603.8,615.6,616.8,602.5,628.4z"/>
</g>
</svg>
